<svg xmlns="http://www.w3.org/2000/svg" x="0px" y="0px" viewBox="6.240940093994141 6.428589820861816 35.51811981201172 35.1428337097168" enable-background="new 0 0 48 48">
<g>
	<g>
		
			<path fill="#FFFFFF" stroke="#536DFE" stroke-width="1" stroke-linecap="round" stroke-linejoin="round" stroke-miterlimit="10" d="    M38.68602,13.3999l-4.20064-0.00001l0.00002-6.47128l3.03075,0.00001c1.59052,0,2.87989,1.28938,2.87989,2.87991l-0.00001,1.88138    C40.39602,12.63431,39.63043,13.3999,38.68602,13.3999z"/>
		<g>
			
				<path fill="#FFFFFF" stroke="#536DFE" stroke-width="1" stroke-linecap="round" stroke-linejoin="round" stroke-miterlimit="10" d="     M37.37996,6.92862L13.87813,6.92859c-2.04931,0-3.71061,1.66129-3.71061,3.7106l-0.00005,30.43219l20.77511,0.00002     c1.96266,0,3.55372-1.59105,3.55372-3.55371l0.00005-27.71145C34.49635,8.21693,35.79065,6.92862,37.37996,6.92862z"/>
		</g>
		
			<path fill="#FFFFFF" stroke="#536DFE" stroke-width="1" stroke-linecap="round" stroke-linejoin="round" stroke-miterlimit="10" d="    M31.26359,41.07141L31.26359,41.07141c-1.93422,0-3.50221-1.56799-3.50221-3.50221v-1.20474    c0-0.97644-0.79156-1.76801-1.76801-1.76801H8.50895c-0.97644,0-1.76801,0.79156-1.76801,1.76801v1.28043    c0,1.89242,1.53411,3.42653,3.42653,3.42653H31.26359z"/>
	</g>
	
		<polyline fill="none" stroke="#536DFE" stroke-width="1" stroke-linecap="round" stroke-linejoin="round" stroke-miterlimit="10" points="   21.59066,20.67989 21.59066,22.6767 24.03199,24.28679  "/>
</g>
<g>
	<g>
		<path fill="none" stroke="#000000" stroke-width="1" stroke-linecap="round" stroke-linejoin="round" stroke-miterlimit="10" d="    M22.32617,15.36796c4.03651,0,7.30874,3.27223,7.30874,7.30874s-3.27224,7.30874-7.30874,7.30874    s-7.30874-3.27223-7.30874-7.30874"/>
		
			<polyline fill="none" stroke="#000000" stroke-width="1" stroke-linecap="round" stroke-linejoin="round" stroke-miterlimit="10" points="    24.63626,13.15464 22.31051,15.2132 23.97034,17.57271   "/>
	</g>
</g>
<g>
	
		<line fill="none" stroke="#000000" stroke-width="1" stroke-linecap="round" stroke-linejoin="round" stroke-miterlimit="10" x1="37.53209" y1="34.59645" x2="37.53209" y2="37.32635"/>
</g>
<g>
	
		<path fill="#FFFFFF" stroke="#000000" stroke-width="1" stroke-linecap="round" stroke-linejoin="round" stroke-miterlimit="10" d="   M41.25906,26.17785c0,2.91639-1.78129,6.40669-2.88093,8.2835c-0.36538,0.62361-1.3267,0.62361-1.69208,0   c-1.09964-1.87681-2.88092-5.36712-2.88092-8.2835c0-4.56008,1.85531-7.65771,2.94788-9.08653   c0.37827-0.49469,1.17989-0.49469,1.55816,0C39.40375,18.52014,41.25906,21.61777,41.25906,26.17785z"/>
	
		<line fill="none" stroke="#000000" stroke-width="1" stroke-linecap="round" stroke-linejoin="round" stroke-miterlimit="10" x1="37.53209" y1="34.59645" x2="37.53209" y2="28.9149"/>
	
		<line fill="none" stroke="#000000" stroke-width="1" stroke-linecap="round" stroke-linejoin="round" stroke-miterlimit="10" x1="39.52764" y1="24.22754" x2="40.9625" y2="23.08938"/>
	
		<line fill="none" stroke="#000000" stroke-width="1" stroke-linecap="round" stroke-linejoin="round" stroke-miterlimit="10" x1="36.34875" y1="21.20525" x2="35.0248" y2="20.16353"/>
	
		<path fill="#FFFFFF" stroke="#000000" stroke-width="1" stroke-linecap="round" stroke-linejoin="round" stroke-miterlimit="10" d="   M39.6678,37.32635h-4.45419c-0.67834,0-1.22823,0.5499-1.22823,1.22824v1.27838c0,0.67833,0.5499,1.22823,1.22823,1.22823h4.45419   c0.67834,0,1.22824-0.5499,1.22824-1.22823v-1.27838C40.89603,37.87625,40.34613,37.32635,39.6678,37.32635z"/>
</g>
</svg>